<svg width="50" height="50" viewBox="0 0 50 50" fill="none" xmlns="http://www.w3.org/2000/svg">
<g clip-path="url(#clip0_2_68)">
<rect width="50" height="50" rx="25" fill="#0866FF"/>
<g clip-path="url(#clip1_2_68)">
<mask id="mask0_2_68" style="mask-type:luminance" maskUnits="userSpaceOnUse" x="-11" y="-6" width="71" height="70">
<path d="M-10.5 -5.99995H59.5V64H-10.5V-5.99995Z" fill="white"/>
</mask>
<g mask="url(#mask0_2_68)">
<path d="M49.5 28.9998C49.5 15.1927 38.3071 3.99978 24.5 3.99978C10.6929 3.99978 -0.5 15.1927 -0.5 28.9998C-0.5 40.7243 7.5715 50.5619 18.4606 53.2635V36.6394H13.3054V28.9998H18.4606V25.7079C18.4606 17.1987 22.3114 13.2547 30.6654 13.2547C32.2492 13.2547 34.9821 13.5652 36.1001 13.8758V20.8012C35.51 20.7391 34.4852 20.708 33.2119 20.708C29.1126 20.708 27.5287 22.2608 27.5287 26.298V28.9998H35.6946L34.2918 36.6394H27.5287V53.8166C39.9073 52.3215 49.5 41.7816 49.5 28.9998Z" fill="#0866FF"/>
<path d="M33.4136 36.0875L34.6445 29.5251H27.4798V27.2042C27.4798 23.7362 28.8694 22.4025 32.4661 22.4025C33.5833 22.4025 34.4825 22.4291 35.0002 22.4824V16.5336C34.0193 16.2668 31.6215 16 30.2318 16C22.9022 16 19.5234 19.388 19.5234 26.6973V29.5251H15.0002V36.0875H19.5234V50.3676C21.2205 50.7798 22.9951 51 24.8223 51C25.722 51 26.6085 50.9457 27.4798 50.8427V36.0875H33.4136Z" fill="white"/>
</g>
</g>
</g>
<defs>
<clipPath id="clip0_2_68">
<rect width="50" height="50" rx="25" fill="white"/>
</clipPath>
<clipPath id="clip1_2_68">
<rect width="50" height="50" fill="white" transform="translate(0.5 1)"/>
</clipPath>
</defs>
</svg>
