<svg width="50" height="50" viewBox="0 0 50 50" fill="none" xmlns="http://www.w3.org/2000/svg">
<g clip-path="url(#clip0_2_115)">
<rect width="50" height="50" rx="25" fill="white"/>
<g clip-path="url(#clip1_2_115)">
<path d="M25.0161 -5.98754C12.0764 -5.98754 8.29203 -5.97419 7.55642 -5.91317C4.90096 -5.69243 3.24858 -5.27433 1.4484 -4.37806C0.0610781 -3.68916 -1.03304 -2.89062 -2.11287 -1.77123C-4.07943 0.270179 -5.27128 2.78166 -5.70273 5.76702C-5.9125 7.21631 -5.97352 7.51189 -5.98592 14.9147C-5.99069 17.3824 -5.98592 20.6299 -5.98592 24.9859C-5.98592 37.9152 -5.97162 41.6957 -5.90964 42.4299C-5.69511 45.0139 -5.28987 46.6395 -4.43174 48.4178C-2.79175 51.8217 0.340449 54.3771 4.03043 55.3306C5.3081 55.6595 6.71926 55.8407 8.53088 55.9265C9.29843 55.9599 17.1218 55.9837 24.9499 55.9837C32.778 55.9837 40.6061 55.9742 41.3546 55.936C43.4522 55.8373 44.6703 55.6738 46.0171 55.3258C49.7309 54.3675 52.8059 51.8503 54.4793 48.3987C55.3207 46.6634 55.7474 44.9757 55.9405 42.5267C55.9824 41.9927 56.0001 33.4796 56.0001 24.9778C56.0001 16.4746 55.981 7.97719 55.9391 7.44324C55.7436 4.95465 55.3169 3.28128 54.4483 1.51257C53.7356 0.0647035 52.9442 -1.01655 51.7952 -2.12211C49.7447 -4.08057 47.2371 -5.27242 44.2489 -5.7034C42.801 -5.91269 42.5126 -5.97467 35.104 -5.98754H25.0161Z" fill="url(#paint0_radial_2_115)"/>
<path d="M25.0161 -5.98754C12.0764 -5.98754 8.29203 -5.97419 7.55642 -5.91317C4.90096 -5.69243 3.24858 -5.27433 1.4484 -4.37806C0.0610781 -3.68916 -1.03304 -2.89062 -2.11287 -1.77123C-4.07943 0.270179 -5.27128 2.78166 -5.70273 5.76702C-5.9125 7.21631 -5.97352 7.51189 -5.98592 14.9147C-5.99069 17.3824 -5.98592 20.6299 -5.98592 24.9859C-5.98592 37.9152 -5.97162 41.6957 -5.90964 42.4299C-5.69511 45.0139 -5.28987 46.6395 -4.43174 48.4178C-2.79175 51.8217 0.340449 54.3771 4.03043 55.3306C5.3081 55.6595 6.71926 55.8407 8.53088 55.9265C9.29843 55.9599 17.1218 55.9837 24.9499 55.9837C32.778 55.9837 40.6061 55.9742 41.3546 55.936C43.4522 55.8373 44.6703 55.6738 46.0171 55.3258C49.7309 54.3675 52.8059 51.8503 54.4793 48.3987C55.3207 46.6634 55.7474 44.9757 55.9405 42.5267C55.9824 41.9927 56.0001 33.4796 56.0001 24.9778C56.0001 16.4746 55.981 7.97719 55.9391 7.44324C55.7436 4.95465 55.3169 3.28128 54.4483 1.51257C53.7356 0.0647035 52.9442 -1.01655 51.7952 -2.12211C49.7447 -4.08057 47.2371 -5.27242 44.2489 -5.7034C42.801 -5.91269 42.5126 -5.97467 35.104 -5.98754H25.0161Z" fill="url(#paint1_radial_2_115)"/>
<path d="M25.0024 9.99982C20.9287 9.99982 20.4174 10.0176 18.8174 10.0905C17.2205 10.1636 16.1305 10.4164 15.1767 10.7873C14.1902 11.1705 13.3533 11.683 12.5195 12.517C11.6851 13.3508 11.1726 14.1877 10.7883 15.1739C10.4164 16.128 10.1633 17.2183 10.0914 18.8146C10.0198 20.4146 10.0011 20.9262 10.0011 25C10.0011 29.0737 10.0192 29.5834 10.0917 31.1834C10.1651 32.7803 10.4179 33.8703 10.7886 34.8241C11.172 35.8107 11.6845 36.6475 12.5186 37.4813C13.352 38.3157 14.1889 38.8294 15.1749 39.2126C16.1292 39.5835 17.2196 39.8363 18.8161 39.9095C20.4162 39.9823 20.9271 40.0001 25.0006 40.0001C29.0747 40.0001 29.5844 39.9823 31.1844 39.9095C32.7813 39.8363 33.8725 39.5835 34.8269 39.2126C35.8132 38.8294 36.6488 38.3157 37.4822 37.4813C38.3166 36.6475 38.8291 35.8107 39.2135 34.8244C39.5823 33.8703 39.8354 32.78 39.9104 31.1838C39.9823 29.5837 40.001 29.0737 40.001 25C40.001 20.9262 39.9823 20.4149 39.9104 18.8149C39.8354 17.218 39.5823 16.128 39.2135 15.1742C38.8291 14.1877 38.3166 13.3508 37.4822 12.517C36.6479 11.6827 35.8135 11.1701 34.826 10.7873C33.8697 10.4164 32.7791 10.1636 31.1822 10.0905C29.5822 10.0176 29.0728 9.99982 24.9978 9.99982H25.0024ZM23.6568 12.703C24.0562 12.7023 24.5018 12.703 25.0024 12.703C29.0075 12.703 29.4822 12.7173 31.0637 12.7892C32.5263 12.8561 33.32 13.1005 33.8488 13.3058C34.5488 13.5777 35.0478 13.9027 35.5725 14.4277C36.0975 14.9527 36.4225 15.4527 36.695 16.1527C36.9004 16.6808 37.145 17.4746 37.2116 18.9371C37.2835 20.5183 37.2991 20.9934 37.2991 24.9965C37.2991 28.9997 37.2835 29.4747 37.2116 31.0559C37.1447 32.5184 36.9004 33.3122 36.695 33.8403C36.4232 34.5403 36.0975 35.0388 35.5725 35.5635C35.0475 36.0885 34.5491 36.4135 33.8488 36.6854C33.3206 36.8916 32.5263 37.1354 31.0637 37.2022C29.4825 37.2741 29.0075 37.2897 25.0024 37.2897C20.9971 37.2897 20.5224 37.2741 18.9411 37.2022C17.4786 37.1347 16.6849 36.8904 16.1558 36.685C15.4558 36.4132 14.9558 36.0882 14.4308 35.5632C13.9058 35.0382 13.5808 34.5394 13.3083 33.8391C13.103 33.311 12.8583 32.5172 12.7917 31.0547C12.7198 29.4734 12.7055 28.9984 12.7055 24.9928C12.7055 20.9871 12.7198 20.5146 12.7917 18.9333C12.8586 17.4708 13.103 16.6771 13.3083 16.1483C13.5802 15.4483 13.9058 14.9483 14.4308 14.4233C14.9558 13.8983 15.4558 13.5733 16.1558 13.3008C16.6846 13.0945 17.4786 12.8508 18.9411 12.7836C20.3249 12.7211 20.8612 12.7023 23.6568 12.6992V12.703ZM33.0094 15.1936C32.0156 15.1936 31.2094 15.9989 31.2094 16.993C31.2094 17.9868 32.0156 18.793 33.0094 18.793C34.0031 18.793 34.8094 17.9868 34.8094 16.993C34.8094 15.9992 34.0031 15.193 33.0094 15.193V15.1936ZM25.0024 17.2968C20.7483 17.2968 17.2993 20.7459 17.2993 25C17.2993 29.254 20.7483 32.7016 25.0024 32.7016C29.2565 32.7016 32.7044 29.254 32.7044 25C32.7044 20.7459 29.2565 17.2968 25.0024 17.2968ZM25.0024 19.9999C27.7637 19.9999 30.0025 22.2384 30.0025 25C30.0025 27.7612 27.7637 30 25.0024 30C22.2409 30 20.0024 27.7612 20.0024 25C20.0024 22.2384 22.2409 19.9999 25.0024 19.9999Z" fill="white"/>
</g>
</g>
<defs>
<radialGradient id="paint0_radial_2_115" cx="0" cy="0" r="1" gradientUnits="userSpaceOnUse" gradientTransform="translate(10.4776 60.7568) rotate(-90) scale(61.4181 57.1392)">
<stop stop-color="#FFDD55"/>
<stop offset="0.1" stop-color="#FFDD55"/>
<stop offset="0.5" stop-color="#FF543E"/>
<stop offset="1" stop-color="#C837AB"/>
</radialGradient>
<radialGradient id="paint1_radial_2_115" cx="0" cy="0" r="1" gradientTransform="matrix(5.39009 26.9201 -110.994 22.2241 -16.3714 -1.52323)" gradientUnits="userSpaceOnUse">
<stop stop-color="#3771C8"/>
<stop offset="0.128" stop-color="#3771C8"/>
<stop offset="1" stop-color="#6600FF" stop-opacity="0"/>
</radialGradient>
<clipPath id="clip0_2_115">
<rect width="50" height="50" rx="25" fill="white"/>
</clipPath>
<clipPath id="clip1_2_115">
<rect width="49.996" height="49.9945" fill="white" transform="translate(0.0039978 0.00275421)"/>
</clipPath>
</defs>
</svg>
