<svg width="50" height="50" viewBox="0 0 50 50" fill="none" xmlns="http://www.w3.org/2000/svg">
<rect width="50" height="50" rx="25" fill="#95C049"/>
<g clip-path="url(#clip0_2_92)">
<path d="M29.7368 13.5659C29.7368 13.5659 29.4043 13.6622 28.8582 13.8309C28.7632 13.5177 28.6208 13.1562 28.4308 12.7707C27.8135 11.5659 26.8874 10.9153 25.7952 10.9153C25.724 10.9153 25.6527 10.9153 25.5578 10.9393C25.534 10.8912 25.4865 10.8671 25.4628 10.8189C24.9879 10.2887 24.3705 10.0478 23.6345 10.0719C22.2098 10.1201 20.7852 11.1562 19.6454 13.0116C18.8381 14.3128 18.2208 15.9514 18.0546 17.2285C16.4162 17.7345 15.2765 18.096 15.2527 18.1201C14.4217 18.3851 14.3979 18.4092 14.303 19.2044C14.1605 19.8068 11.9998 36.7948 11.9998 36.7948L29.9505 39.9514V13.5177C29.8555 13.5418 29.7842 13.5418 29.7368 13.5659ZM25.5815 14.8671C24.6317 15.1562 23.587 15.4936 22.566 15.8068C22.8509 14.6743 23.4208 13.5418 24.0856 12.7948C24.3468 12.5297 24.703 12.2165 25.1066 12.0237C25.5103 12.8912 25.6053 14.0719 25.5815 14.8671ZM23.6582 11.0357C23.9906 11.0357 24.2756 11.108 24.513 11.2526C24.1331 11.4454 23.7532 11.7586 23.397 12.1201C22.4947 13.108 21.8062 14.6502 21.5212 16.1201C20.6664 16.3851 19.8116 16.6502 19.0281 16.8912C19.5267 14.602 21.45 11.108 23.6582 11.0357ZM20.8801 24.2887C20.9751 25.8309 24.9879 26.1683 25.2253 29.8068C25.3916 32.6743 23.7295 34.6261 21.3313 34.7707C18.4345 34.9634 16.8436 33.2285 16.8436 33.2285L17.461 30.5779C17.461 30.5779 19.0518 31.8068 20.334 31.7104C21.1651 31.6622 21.4737 30.9634 21.45 30.4815C21.3313 28.4574 18.0546 28.5779 17.8409 25.2526C17.6509 22.4815 19.4555 19.6622 23.4445 19.3972C24.9879 19.3008 25.7715 19.6863 25.7715 19.6863L24.8692 23.1562C24.8692 23.1562 23.8482 22.6743 22.6372 22.7707C20.8801 22.8912 20.8564 24.0237 20.8801 24.2887ZM26.5313 14.5779C26.5313 13.855 26.4363 12.8189 26.1039 11.9514C27.1961 12.1683 27.7185 13.3972 27.9559 14.1442C27.5285 14.2646 27.0537 14.4092 26.5313 14.5779Z" fill="white"/>
<path d="M30.5443 39.8556L38 37.976C38 37.976 34.7945 15.976 34.7707 15.8315C34.747 15.6869 34.6283 15.5905 34.5095 15.5905C34.3908 15.5905 32.3013 15.5423 32.3013 15.5423C32.3013 15.5423 31.0191 14.2893 30.5443 13.8074V39.8556Z" fill="white"/>
</g>
<defs>
<clipPath id="clip0_2_92">
<rect width="26" height="30" fill="white" transform="translate(12 10)"/>
</clipPath>
</defs>
</svg>
