<svg width="50" height="50" viewBox="0 0 50 50" fill="none" xmlns="http://www.w3.org/2000/svg">
<rect width="50" height="50" rx="25" fill="#006699"/>
<path fill-rule="evenodd" clip-rule="evenodd" d="M17.9029 37.0003V20.8067H12.3295V37.0003H17.9029ZM15.1162 18.5957C17.0598 18.5957 18.2695 17.3522 18.2695 15.7982C18.2332 14.2093 17.0598 13.0003 15.153 13.0003C13.2465 13.0003 12 14.2093 12 15.7982C12 17.3522 13.2095 18.5957 15.0798 18.5957H15.1162Z" fill="white"/>
<path fill-rule="evenodd" clip-rule="evenodd" d="M20.9871 37.0003H26.5605V27.9571C26.5605 27.4731 26.5967 26.9896 26.7439 26.6436C27.1468 25.6766 28.0638 24.6751 29.6035 24.6751C31.6203 24.6751 32.427 26.1601 32.427 28.3371V37.0003H38V27.7151C38 22.7412 35.2504 20.4267 31.5835 20.4267C28.5767 20.4267 27.2568 22.0497 26.5234 23.1552H26.5606V20.8067H20.9872C21.0604 22.3262 20.9871 37.0003 20.9871 37.0003Z" fill="white"/>
</svg>
