<svg width="50" height="50" viewBox="0 0 50 50" fill="none" xmlns="http://www.w3.org/2000/svg">
<rect width="50" height="50" rx="25" fill="black"/>
<path d="M19.9161 23.8542C19.9161 23.8542 21.1819 25.7236 23.1692 25.356L26.4813 24.9159C26.4813 24.9159 29.4486 24.2444 31.4586 27.062L30.0702 28.2235C30.0702 28.2235 28.9495 26.5266 27.2935 26.7036L22.9151 27.2299C22.9151 27.2299 20.2609 27.5838 18.5186 25.0158L19.9161 23.8542Z" fill="white"/>
<path d="M16.0824 18.5317C19.9072 18.5317 23.0061 21.6306 23.0061 25.4554C23.0061 29.2802 19.9072 32.3791 16.0824 32.3791C12.2576 32.3791 9.15871 29.2802 9.15871 25.4554C9.15871 21.6306 12.2576 18.5317 16.0824 18.5317ZM16.0824 16.5717C13.7095 16.5717 11.4817 17.4927 9.80298 19.1715C8.12424 20.8502 7.2032 23.0779 7.2032 25.4509C7.2032 27.8238 8.12424 30.0515 9.80298 31.7303C11.4817 33.409 13.7095 34.33 16.0824 34.33C18.4553 34.33 20.6831 33.409 22.3618 31.7303C24.0405 30.0515 24.9616 27.8238 24.9616 25.4509C24.9616 23.0779 24.0405 20.8502 22.3618 19.1715C20.6831 17.4927 18.4553 16.5717 16.0824 16.5717Z" fill="url(#paint0_linear_2_24)"/>
<path d="M41.7754 23.1324C41.299 20.8139 40.0377 19.0535 38.0005 17.8602C36.6212 17.0526 35.1195 16.676 33.536 16.617C32.8781 16.5944 32.2202 16.5853 31.5669 16.5807C29.5705 16.5762 27.5742 16.5762 25.5824 16.5717H25.4281V34.3255H28.1186C29.4662 34.3255 30.8182 34.3074 32.1658 34.33C33.0278 34.3437 33.8808 34.3119 34.7293 34.1622C35.7592 33.9807 36.7528 33.6858 37.6875 33.2003C39.3435 32.3428 40.5731 31.0769 41.299 29.3437C41.6802 28.4272 41.8843 27.4699 41.9569 26.4853C42.0431 25.3601 42.0068 24.2394 41.78 23.1324H41.7754ZM39.9742 26.1496C39.9288 26.8755 39.8018 27.5833 39.5568 28.2684C38.9987 29.8247 37.9325 30.909 36.4352 31.576C35.6866 31.9117 34.8971 32.1023 34.085 32.2112C33.4543 32.2929 32.8191 32.3201 32.1839 32.3156C30.6594 32.3156 29.1304 32.3156 27.6059 32.3156H27.3882C27.3882 30.4326 27.3882 20.6869 27.3882 18.6043C27.4608 18.6043 27.5333 18.5952 27.6059 18.5952C29.1486 18.5952 30.6912 18.5952 32.2384 18.5952C32.6512 18.5952 33.0687 18.5771 33.477 18.6134C34.5568 18.7132 35.6049 18.9355 36.5895 19.4028C38.2592 20.1968 39.3072 21.499 39.7473 23.2866C39.9787 24.2304 40.0286 25.1877 39.9651 26.1496H39.9742Z" fill="white"/>
<defs>
<linearGradient id="paint0_linear_2_24" x1="6.35476" y1="20.578" x2="27.3889" y2="31.1268" gradientUnits="userSpaceOnUse">
<stop stop-color="#F69331"/>
<stop offset="0.53" stop-color="#ED3335"/>
<stop offset="1" stop-color="#ED3181"/>
</linearGradient>
</defs>
</svg>
